{"title":"The Lookalike 2014 720p WEB-DL DD5 1 H 264-PLAYNOW","uid":11410771,"size":3420743947,"categoryP":"video","categoryS":"hd___movies","magnet":"?xt=urn:btih:53138683cfdcfcddb768ad095b92020ea3a1d1e7&amp;dn=The+Lookalike+2014+720p+WEB-DL+DD5+1+H+264-PLAYNOW&amp;tr=udp%3A%2F%2Ftracker.openbittorrent.com%3A80&amp;tr=udp%3A%2F%2Fopen.demonii.com%3A1337&amp;tr=udp%3A%2F%2Ftracker.coppersurfer.tk%3A6969&amp;tr=udp%3A%2F%2Fexodus.desync.com%3A6969","seeders":5,"leechers":3,"uploader":"xxxlavalxxx","files":-1,"time":1415530978,"description":"[center][img]http://s30.postimg.org/k9wa7y38h/image.jpg[/img]\n\nThe Lookalike (2014)\n\nGenre: Crime | Drama | Thriller\n\nDrug lord William Spinks has a curious obsession with Sadie Hill and uses family friends Bobby and Frank to get to her. But when Sadie s death jeopardizes a major deal, Bobby and Frank set out to find a replacement, a lookalike to fool Spinks. The shady plan propels an ex-basketball champion, a deaf beauty, an addict, and an aspiring actress into an unlikely romance and a desperate quest to start over\n\nStarring: Justin Long, Gillian Jacobs, John Corbett\nRelease Date: 2014 (USA)\n &lt;a href=&quot;\nhttp://www.imdb.com/title/tt2497980/&quot; rel=&quot;nofollow&quot; target=&quot;_NEW&quot;&gt;\nhttp://www.imdb.com/title/tt2497980/&lt;/a&gt;\n\nThe.Lookalike.2014.720p.WEB-DL.DD5.1.H.264-PLAYNOW.mkv\nFormat: Matroska\nFormat version: Version 4 / Version 2\nFile size: 3.19 GiB\nDuration: 1h 40mn\nOverall bit rate: 4 535 Kbps\nEncoded date: UTC 2014-11-09 06:10:33\nWriting application: mkvmerge v7.0.0 ('Where We Going') 64bit built on Jun 9 2014 15:16:27\nWriting library: libebml v1.3.0 + libmatroska v1.4.1\nDURATION: 01:36:21.141000000\nNUMBER_OF_FRAMES: 1361\nNUMBER_OF_BYTES: 54502\n_STATISTICS_WRITING_APP: mkvmerge v7.0.0 ('Where We Going') 64bit built on Jun 9 2014 15:16:27\n_STATISTICS_WRITING_DATE_UTC: 2014-11-09 06:10:33\n_STATISTICS_TAGS: BPS DURATION NUMBER_OF_FRAMES NUMBER_OF_BYTES\n\nVideo\nID: 1\nFormat: AVC\nFormat/Info: Advanced Video Codec\nFormat profile: &lt;a class=&quot;__cf_email__&quot; href=&quot;/cdn-cgi/l/email-protection&quot; data-cfemail=&quot;2469454d4a6468170a15&quot;&gt;[email&amp;#160;protected]&lt;/a&gt;&lt;script cf-hash='f9e31' type=&quot;text/javascript&quot;&gt;\n/* &lt;![CDATA[ */!function(){try{var t=&quot;currentScript&quot;in document?document.currentScript:function(){for(var t=document.getElementsByTagName(&quot;script&quot;),e=t.length;e--;)if(t[e].getAttribute(&quot;cf-hash&quot;))return t[e]}();if(t&amp;&amp;t.previousSibling){var e,r,n,i,c=t.previousSibling,a=c.getAttribute(&quot;data-cfemail&quot;);if(a){for(e=&quot;&quot;,r=parseInt(a.substr(0,2),16),n=2;a.length-n;n+=2)i=parseInt(a.substr(n,2),16)^r,e+=String.fromCharCode(i);e=document.createTextNode(e),c.parentNode.replaceChild(e,c)}}}catch(u){}}();/* ]]&gt; */&lt;/script&gt;\nFormat settings, CABAC: No\nFormat settings, ReFrames: 2 frames\nCodec ID: V_MPEG4/ISO/AVC\nDuration: 1h 40mn\nBit rate: 4 061 Kbps\nWidth: 1 280 pixels\nHeight: 544 pixels\nDisplay aspect ratio: 2.35:1\nFrame rate mode: Constant\nFrame rate: 23.976 fps\nColor space: YUV\nChroma subsampling: 4:2:0\nBit depth: 8 bits\nScan type: Progressive\nBits/(Pixel*Frame): 0.243\nStream size: 2.85 GiB (90%)\nLanguage: English\nDefault: Yes\nForced: No\nColor primaries: BT.709\nTransfer characteristics: BT.709\nMatrix coefficients: BT.709\n\nAudio\nID: 2\nFormat: AC-3\nFormat/Info: Audio Coding 3\nMode extension: CM (complete main)\nFormat settings, Endianness: Big\nCodec ID: A_AC3\nDuration: 1h 40mn\nBit rate mode: Constant\nBit rate: 384 Kbps\nChannel(s): 6 channels\nChannel positions: Front: L C R, Side: L R, LFE\nSampling rate: 48.0 KHz\nBit depth: 16 bits\nCompression mode: Lossy\nStream size: 276 MiB (8%)\nLanguage: English\nDefault: Yes\nForced: No\n\nText\nID: 3\nFormat: UTF-8\nCodec ID: S_TEXT/UTF8\nCodec ID/Info: UTF-8 Plain Text\nLanguage: English\nDefault: No\nForced: No\n\nMenu\n00:00:00.000: en:Chapter 1\n00:10:00.000: en:Chapter 2\n00:20:01.000: en:Chapter 3\n00:30:01.000: en:Chapter 4\n00:40:02.000: en:Chapter 5\n00:50:03.000: en:Chapter 6\n01:00:03.000: en:Chapter 7\n01:10:04.000: en:Chapter 8\n01:20:04.000: en:Chapter 9\n01:30:05.000: en:Chapter 10 \n\n &lt;a href=&quot;\nhttp://s30.postimg.org/3nepyvaap/image.png&quot; rel=&quot;nofollow&quot; target=&quot;_NEW&quot;&gt;\nhttp://s30.postimg.org/3nepyvaap/image.png&lt;/a&gt; &lt;a href=&quot;\nhttp://s30.postimg.org/shy7sxv4x/image.png&quot; rel=&quot;nofollow&quot; target=&quot;_NEW&quot;&gt;\nhttp://s30.postimg.org/shy7sxv4x/image.png&lt;/a&gt; &lt;a href=&quot;\nhttp://s30.postimg.org/qrf6rgdlt/image.png&quot; rel=&quot;nofollow&quot; target=&quot;_NEW&quot;&gt;\nhttp://s30.postimg.org/qrf6rgdlt/image.png&lt;/a&gt;","torrent":{"xt":"urn:btih:53138683cfdcfcddb768ad095b92020ea3a1d1e7","amp;dn":"The+Lookalike+2014+720p+WEB-DL+DD5+1+H+264-PLAYNOW","amp;tr":["udp%3A%2F%2Ftracker.openbittorrent.com%3A80","udp%3A%2F%2Fopen.demonii.com%3A1337","udp%3A%2F%2Ftracker.coppersurfer.tk%3A6969","udp%3A%2F%2Fexodus.desync.com%3A6969"],"infoHash":"53138683cfdcfcddb768ad095b92020ea3a1d1e7","infoHashBuffer":{"type":"Buffer","data":[83,19,134,131,207,220,252,221,183,104,173,9,91,146,2,14,163,161,209,231]},"announce":[],"urlList":[]}}